General
Complete name                    : The Avengers (2012) [1080p] cashLEO
Format                           : MPEG-4
Format profile                   : Base Media
Codec ID                         : isom
File size                        : 2.20 GiB
Duration                         : 2h 22mn
Overall bit rate                 : 2 200 Kbps
Video
ID                               : 1
Format                           : AVC
Format/Info                      : Advanced Video Codec
Format profile                   : High@L4.0
Format settings, CABAC           : Yes
Format settings, ReFrames        : 4 frames
Codec ID                         : avc1
Codec ID/Info                    : Advanced Video Coding
Duration                         : 2h 22mn
Bit rate mode                    : Variable
Bit rate                         : 2 104 Kbps
Maximum bit rate                 : 13.1 Mbps
Width                            : 1 920 pixels
Height                           : 1 080 pixels
Display aspect ratio             : 16:9
Frame rate mode                  : Constant
Frame rate                       : 23.976 fps
Color space                      : YUV
Chroma subsampling               : 4:2:0
Bit depth                        : 8 bits
Scan type                        : Progressive
Bits/(Pixel*Frame)               : 0.042
Stream size                      : 2.10 GiB (96%)
Writing library                  : x264 core 125
ID                               : 2
Format                           : AAC
Format/Info                      : Advanced Audio Codec
Format profile                   : LC
Codec ID                         : 40
Duration                         : 2h 22mn
Bit rate mode                    : Variable
Bit rate                         : 93.9 Kbps
Maximum bit rate                 : 140 Kbps
Channel(s)                       : 2 channels
Channel positions                : Front: L R
Sampling rate                    : 44.1 KHz
Compression mode                 : Lossy
Stream size                      : 96.0 MiB (4%)
Language                         : English
[img]http://s10.postimage.org/bt0dqfu7t/The_Avengers_2012_1080p_cash_LEO.jpg[/img]
[img]http://s13.postimage.org/kafa8okif/The_Avengers_2012_1080p_cash_LEO.jpg[/img]
[img]http://s18.postimage.org/ezk6glr15/The_Avengers_2012_1080p_cash_LEO.jpg[/img]